<?xml version="1.0" encoding="UTF-8" standalone="no"?>
<svg
   xmlns:dc="http://purl.org/dc/elements/1.1/"
   xmlns:cc="http://creativecommons.org/ns#"
   xmlns:rdf="http://www.w3.org/1999/02/22-rdf-syntax-ns#"
   xmlns:svg="http://www.w3.org/2000/svg"
   xmlns="http://www.w3.org/2000/svg"
   viewBox="0 0 4107.6001 1960.1333"
   height="1960.1333"
   width="4107.6001"
   xml:space="preserve"
   id="svg2"
   version="1.1"><metadata
     id="metadata8"><rdf:RDF><cc:Work
         rdf:about=""><dc:format>image/svg+xml</dc:format><dc:type
           rdf:resource="http://purl.org/dc/dcmitype/StillImage" /></cc:Work></rdf:RDF></metadata><defs
     id="defs6"><clipPath
       id="clipPath30"
       clipPathUnits="userSpaceOnUse"><path
         id="path28"
         d="M 0,1470.1 H 3080.7 V 0 H 0 Z" /></clipPath><clipPath
       id="clipPath166"
       clipPathUnits="userSpaceOnUse"><path
         id="path164"
         d="m 2321.34,1353.83 h 115.09 v -300.77 h -115.09 z" /></clipPath></defs><g
     transform="matrix(1.3333333,0,0,-1.3333333,0,1960.1333)"
     id="g10"><g
       transform="translate(704.7739,353.4506)"
       id="g12"><path
         id="path14"
         style="fill:#fbfbfb;fill-opacity:1;fill-rule:nonzero;stroke:none"
         d="m 0,0 -18.255,149.618 -99.046,-26.519 49.338,-404.45 99.046,26.52 -16.898,139.997 2.713,5.427 118.165,-117.548 123.839,33.18 L 80.421,-29.232 210.181,210.797 87.452,177.864 Z" /></g><g
       transform="translate(1097.752,495.2982)"
       id="g16"><path
         id="path18"
         style="fill:#fbfbfb;fill-opacity:1;fill-rule:nonzero;stroke:none"
         d="m 0,0 37.497,-111.505 70.43,-159.238 106.817,28.616 -183.167,368.556 -98.554,-26.397 -76.72,-438.122 106.817,28.616 26.642,184.648 8.511,124.332 z" /></g><g
       transform="translate(1434.7314,463.475)"
       id="g20"><path
         id="path22"
         style="fill:#fbfbfb;fill-opacity:1;fill-rule:nonzero;stroke:none"
         d="m 0,0 11.348,125.072 7.154,1.974 39.84,-111.381 z m 45.021,252.117 -89.672,-24.052 -86.588,-440.836 105.706,28.37 14.308,87.575 103.981,27.876 35.276,-74.377 105.707,28.369 z" /></g><g
       id="g24"><g
         clip-path="url(#clipPath30)"
         id="g26"><g
           transform="translate(1865.3301,531.6849)"
           id="g32"><path
             id="path34"
             style="fill:#fbfbfb;fill-opacity:1;fill-rule:nonzero;stroke:none"
             d="m 0,0 c -6.538,-28.246 -29.11,-45.515 -51.683,-51.559 -27.505,-7.4 -55.998,2.097 -58.959,28.494 l -17.267,139.256 c -3.207,27.506 20.721,50.325 48.597,58.465 23.066,6.168 48.722,3.084 63.4,-16.651 l 76.104,55.136 C 20.104,276.787 -40.334,282.337 -88.192,269.509 -166.394,248.541 -237.934,181.07 -226.463,89.672 l 17.269,-139.257 c 11.594,-91.893 93.989,-117.548 170.587,-97.072 48.967,13.074 99.909,47.487 129.512,128.525 z" /></g><g
           transform="translate(2184.5469,617.1625)"
           id="g36"><path
             id="path38"
             style="fill:#fbfbfb;fill-opacity:1;fill-rule:nonzero;stroke:none"
             d="m 0,0 c -6.537,-28.246 -29.109,-45.514 -51.682,-51.558 -27.506,-7.401 -55.999,2.097 -58.959,28.493 l -17.268,139.256 c -3.207,27.507 20.722,50.326 48.598,58.466 23.066,6.168 48.721,3.084 63.4,-16.651 l 76.103,55.135 C 20.105,276.787 -40.334,282.338 -88.192,269.51 -166.393,248.541 -237.934,181.071 -226.462,89.673 l 17.269,-139.257 c 11.593,-91.893 93.988,-117.548 170.586,-97.073 48.968,13.075 99.91,47.488 129.512,128.526 z" /></g><g
           transform="translate(2376.5957,818.4623)"
           id="g40"><path
             id="path42"
             style="fill:#fbfbfb;fill-opacity:1;fill-rule:nonzero;stroke:none"
             d="m 0,0 c -3.454,30.343 27.259,54.519 59.205,63.029 31.946,8.512 63.399,1.111 66.854,-29.232 l 15.665,-135.557 c 3.823,-31.946 -27.013,-55.629 -58.836,-64.139 -29.727,-8.018 -62.783,-1.481 -66.36,27.629 z m -82.024,-164.666 c 11.224,-92.509 97.442,-117.178 178.357,-95.593 84.737,22.697 155.908,89.549 144.684,182.058 L 224.611,60.193 C 213.387,152.702 126.552,177.248 45.638,155.539 -35.277,133.83 -109.284,66.853 -98.553,-26.396 Z" /></g><g
           transform="translate(2774.1377,737.4247)"
           id="g44"><path
             id="path46"
             style="fill:#fbfbfb;fill-opacity:1;fill-rule:nonzero;stroke:none"
             d="M 0,0 -10.361,82.765 46.871,98.06 c 58.342,15.664 69.814,-66.854 10.36,-82.765 z m -19.489,156.402 -8.634,72.033 57.232,15.295 c 49.584,13.321 56.616,-59.206 8.634,-72.034 z m 179.838,84.121 C 153.071,318.23 92.755,349.807 18.378,329.948 L -137.9,288.011 -87.945,-116.191 71.17,-73.514 c 86.465,23.189 123.592,73.761 125.441,141.6 1.358,32.193 -11.47,82.395 -68.826,95.963 26.397,22.326 33.92,57.972 32.564,76.474" /></g><g
           transform="translate(317.2231,554.7504)"
           id="g48"><path
             id="path50"
             style="fill:#fbfbfb;fill-opacity:1;fill-rule:nonzero;stroke:none"
             d="m 0,0 -11.594,91.893 56.739,15.17 c 30.219,8.141 47.117,-3.947 50.571,-32.439 3.577,-28.493 -4.81,-50.202 -38.36,-59.206 z m 193.899,95.593 c -9.744,80.544 -49.091,114.834 -157.512,85.848 l -57.232,-15.295 -7.401,62.906 167.256,44.774 -10.607,85.602 -266.426,-71.417 49.338,-404.449 159.115,42.677 c 86.466,23.19 133.213,88.809 123.469,169.354" /></g><g
           transform="translate(784.085,587.1898)"
           id="g52"><path
             id="path54"
             style="fill:#fbfbfb;fill-opacity:1;fill-rule:nonzero;stroke:none"
             d="m 0,0 99.046,26.52 -49.338,404.449 -90.289,-24.176 -78.324,-198.586 -23.682,-81.284 h -2.344 c 0,0 0.37,62.659 0.864,62.782 l -22.572,183.291 -99.047,-26.519 49.339,-404.449 93.002,24.915 74.377,184.525 27.013,88.685 2.96,0.247 c 0,0 -0.247,-78.447 -0.74,-78.694 z" /></g><g
           transform="translate(1192.2344,1018.035)"
           id="g56"><path
             id="path58"
             style="fill:#fbfbfb;fill-opacity:1;fill-rule:nonzero;stroke:none"
             d="m 0,0 -10.978,93.742 -309.843,-83.011 10.978,-93.742 105.09,28.122 39.1,-310.953 99.663,26.642 -39.1,310.954 z" /></g><g
           transform="translate(1357.2705,833.3871)"
           id="g60"><path
             id="path62"
             style="fill:#fbfbfb;fill-opacity:1;fill-rule:nonzero;stroke:none"
             d="M 0,0 -10.361,82.765 46.871,98.06 c 58.342,15.665 69.814,-66.853 10.361,-82.765 z m -19.489,156.402 -8.634,72.034 57.232,15.294 c 49.585,13.321 56.616,-59.206 8.635,-72.033 z m 179.715,84.244 c -7.278,77.708 -67.594,109.285 -141.971,89.426 l -156.278,-41.937 49.955,-404.203 159.115,42.677 c 86.465,23.189 123.592,73.761 125.442,141.601 1.357,32.193 -11.471,82.394 -68.827,95.962 26.396,22.326 34.044,57.973 32.564,76.474" /></g><g
           transform="translate(1701.6504,1010.6342)"
           id="g64"><path
             id="path66"
             style="fill:#fbfbfb;fill-opacity:1;fill-rule:nonzero;stroke:none"
             d="m 0,0 11.348,125.072 7.154,1.974 39.841,-111.381 z m 45.021,252.118 -89.672,-24.053 -86.588,-440.836 105.707,28.37 14.307,87.575 103.981,27.876 35.276,-74.377 105.707,28.369 z" /></g><g
           transform="translate(1512.0688,199.1459)"
           id="g68"><path
             id="path70"
             style="fill:#dee8f2;fill-opacity:1;fill-rule:nonzero;stroke:none"
             d="m 0,0 c -0.74,6.907 6.167,12.458 13.445,14.432 7.277,1.973 14.431,0.246 15.295,-6.661 l 3.577,-30.96 c 0.863,-7.278 -6.168,-12.705 -13.445,-14.678 -6.784,-1.85 -14.308,-0.37 -15.172,6.291 z m -18.749,-37.497 c 2.591,-21.092 22.203,-26.766 40.705,-21.832 19.365,5.181 35.523,20.475 33.056,41.567 l -3.7,31.576 C 48.721,34.906 28.986,40.457 10.484,35.523 -8.018,30.59 -24.916,15.295 -22.449,-5.921 Z" /></g><g
           transform="translate(1638.1279,242.4398)"
           id="g72"><path
             id="path74"
             style="fill:#dee8f2;fill-opacity:1;fill-rule:nonzero;stroke:none"
             d="m 0,0 -2.467,21.339 -70.678,-18.995 2.467,-21.339 23.93,6.414 8.881,-70.924 22.695,6.044 -8.881,70.924 z" /></g><g
           transform="translate(1720.5225,220.8549)"
           id="g76"><path
             id="path78"
             style="fill:#dee8f2;fill-opacity:1;fill-rule:nonzero;stroke:none"
             d="m 0,0 c -1.48,-6.414 -6.661,-10.361 -11.842,-11.718 -6.29,-1.727 -12.827,0.493 -13.444,6.537 l -3.947,31.824 c -0.74,6.29 4.687,11.47 11.101,13.321 5.304,1.356 11.101,0.74 14.432,-3.824 L 13.691,48.722 C 4.563,63.276 -9.251,64.51 -20.105,61.549 -37.99,56.738 -54.272,41.32 -51.682,20.599 l 3.947,-31.824 c 2.714,-20.968 21.463,-26.765 38.854,-22.079 11.224,2.961 22.819,10.855 29.603,29.357 z" /></g><g
           transform="translate(1764.3096,266.7386)"
           id="g80"><path
             id="path82"
             style="fill:#dee8f2;fill-opacity:1;fill-rule:nonzero;stroke:none"
             d="m 0,0 c -0.74,6.908 6.168,12.458 13.445,14.432 7.278,1.973 14.431,0.247 15.294,-6.661 l 3.577,-30.959 c 0.864,-7.278 -6.167,-12.706 -13.444,-14.678 -6.784,-1.851 -14.308,-0.37 -15.172,6.29 z m -18.748,-37.496 c 2.59,-21.093 22.202,-26.767 40.704,-21.832 19.365,5.18 35.523,20.474 33.057,41.566 L 51.312,13.815 C 48.722,34.907 28.986,40.458 10.484,35.523 -8.017,30.59 -24.915,15.295 -22.448,-5.92 Z" /></g><g
           transform="translate(1877.0479,283.8842)"
           id="g84"><path
             id="path86"
             style="fill:#dee8f2;fill-opacity:1;fill-rule:nonzero;stroke:none"
             d="M 0,0 C 6.044,5.057 7.771,14.185 7.277,20.229 5.797,34.66 -5.181,44.527 -27.63,38.483 -40.581,35.03 -49.092,27.629 -54.889,15.542 l 15.418,-7.895 c 3.207,4.564 7.401,9.251 13.815,10.978 7.524,1.974 11.841,-0.37 12.334,-4.934 0.74,-5.673 -1.357,-10.361 -9.62,-12.458 l -12.705,-3.453 2.096,-17.391 13.198,3.576 c 9.498,2.591 12.705,-1.85 12.829,-6.783 0.123,-6.661 -4.195,-11.102 -13.199,-13.446 -6.784,-1.849 -11.965,-0.37 -18.008,4.195 l -12.705,-15.172 c 8.388,-9.744 20.969,-13.074 35.277,-9.251 22.202,5.921 34.044,18.625 31.823,38.36 C 14.801,-10.361 9.867,-2.344 0,0" /></g><g
           transform="translate(1940.4473,297.2054)"
           id="g88"><path
             id="path90"
             style="fill:#dee8f2;fill-opacity:1;fill-rule:nonzero;stroke:none"
             d="m 0,0 9.744,-22.819 -20.969,-5.674 3.33,26.149 1.234,21.709 0.493,0.123 z m -15.295,-70.307 -2.344,18.502 38.854,10.485 2.344,-18.502 22.325,6.044 -4.934,39.469 -8.14,-2.219 -31.577,65.126 -22.202,-5.92 -13.691,-77.215 -8.018,-2.097 4.934,-39.47 z" /></g><g
           transform="translate(2014.9473,310.5267)"
           id="g92"><path
             id="path94"
             style="fill:#dee8f2;fill-opacity:1;fill-rule:nonzero;stroke:none"
             d="m 0,0 2.59,28.492 1.603,0.494 9.128,-25.409 z m 10.361,57.603 -20.475,-5.428 -19.736,-100.527 24.053,6.414 3.207,19.982 23.682,6.414 8.017,-16.898 24.053,6.414 z" /></g><g
           transform="translate(2120.5313,371.7054)"
           id="g96"><path
             id="path98"
             style="fill:#dee8f2;fill-opacity:1;fill-rule:nonzero;stroke:none"
             d="m 0,0 -2.467,21.339 -70.678,-18.995 2.468,-21.339 23.929,6.414 8.881,-70.923 22.695,6.044 -8.881,70.923 z" /></g><g
           transform="translate(2152.1074,379.3529)"
           id="g100"><path
             id="path102"
             style="fill:#dee8f2;fill-opacity:1;fill-rule:nonzero;stroke:none"
             d="M 0,0 39.101,10.484 36.51,32.44 -25.409,15.912 -14.062,-76.227 47.857,-59.698 45.021,-37.743 5.92,-48.228 4.193,-34.413 40.21,-24.792 37.62,-4.07 1.604,-13.69 Z" /></g><g
           transform="translate(2236.9688,397.8549)"
           id="g104"><path
             id="path106"
             style="fill:#dee8f2;fill-opacity:1;fill-rule:nonzero;stroke:none"
             d="m 0,0 8.511,-25.409 16.035,-36.387 24.299,6.537 -41.815,83.998 -22.448,-6.044 -17.516,-99.909 24.3,6.537 6.043,42.061 1.974,28.37 z" /></g><g
           transform="translate(2305.7959,420.5502)"
           id="g108"><path
             id="path110"
             style="fill:#dee8f2;fill-opacity:1;fill-rule:nonzero;stroke:none"
             d="m 0,0 39.1,10.484 -2.713,22.079 -61.92,-16.528 11.347,-92.139 61.92,16.529 -2.837,21.955 -39.224,-10.484 -1.727,13.815 36.017,9.62 -2.59,20.723 -36.017,-9.621 z" /></g><g
           transform="translate(2414.9561,377.2562)"
           id="g112"><path
             id="path114"
             style="fill:#dee8f2;fill-opacity:1;fill-rule:nonzero;stroke:none"
             d="M 0,0 22.572,6.044 11.348,98.307 -9.251,92.756 -27.136,47.488 -32.563,28.986 h -0.494 c 0,0 0.124,14.308 0.247,14.308 l -5.18,41.814 -22.573,-6.044 11.225,-92.262 21.216,5.674 17.021,42.061 6.167,20.229 h 0.618 c 0,0 0,-17.886 -0.124,-17.886 z m -25.162,93.989 c 11.718,3.084 21.709,13.815 19.981,28.74 l -17.391,-4.687 c 0.37,-3.331 -1.604,-5.921 -4.688,-6.784 -2.96,-0.863 -5.55,0.616 -5.92,3.947 l -17.515,-4.687 c 1.85,-14.925 13.815,-19.613 25.533,-16.529" /></g><g
           transform="translate(2463.4307,485.4301)"
           id="g116"><path
             id="path118"
             style="fill:#dee8f2;fill-opacity:1;fill-rule:nonzero;stroke:none"
             d="m 0,0 11.225,-92.262 22.572,6.044 -8.511,70.06 32.81,8.758 -2.713,22.202 z" /></g><g
           transform="translate(2561.7373,463.7211)"
           id="g120"><path
             id="path122"
             style="fill:#dee8f2;fill-opacity:1;fill-rule:nonzero;stroke:none"
             d="m 0,0 9.744,-22.818 -20.969,-5.674 3.33,26.149 1.234,21.708 0.493,0.124 z m -15.172,-70.307 -2.344,18.502 38.854,10.485 2.344,-18.502 22.326,6.044 -4.935,39.47 -8.14,-2.22 -31.577,65.127 -22.202,-5.921 -13.691,-77.214 -8.018,-2.097 4.934,-39.471 z" /></g><g
           transform="translate(2656.4658,492.7074)"
           id="g124"><path
             id="path126"
             style="fill:#dee8f2;fill-opacity:1;fill-rule:nonzero;stroke:none"
             d="M 0,0 C 6.044,5.058 7.771,14.185 7.277,20.229 5.798,34.66 -5.181,44.527 -27.629,38.483 -40.58,35.03 -49.091,27.63 -54.889,15.542 l 15.418,-7.895 c 3.207,4.564 7.401,9.251 13.815,10.978 7.524,1.974 11.842,-0.37 12.335,-4.934 0.74,-5.673 -1.358,-10.361 -9.621,-12.458 l -12.705,-3.453 2.097,-17.391 13.197,3.577 c 9.499,2.59 12.706,-1.851 12.829,-6.784 0.123,-6.661 -4.194,-11.102 -13.199,-13.446 -6.784,-1.849 -11.964,-0.369 -18.008,4.195 l -12.828,-15.172 c 8.388,-9.744 20.969,-13.074 35.277,-9.251 22.202,5.921 34.044,18.625 31.823,38.36 C 14.925,-10.237 9.991,-2.344 0,0" /></g><g
           transform="translate(2729.2393,482.5931)"
           id="g128"><path
             id="path130"
             style="fill:#dee8f2;fill-opacity:1;fill-rule:nonzero;stroke:none"
             d="m 0,0 -2.713,20.969 12.951,3.454 C 17.146,26.272 20.969,23.559 21.709,17.021 22.572,10.484 20.6,5.551 12.952,3.454 Z M 44.281,21.832 C 42.061,40.211 33.057,47.981 8.388,41.444 L -4.687,37.99 -6.414,52.299 31.7,62.536 29.233,82.024 -31.453,65.743 l 11.224,-92.263 36.264,9.746 c 19.859,5.179 30.467,20.228 28.246,38.606" /></g><g
           transform="translate(2799.1768,544.1429)"
           id="g132"><path
             id="path134"
             style="fill:#dee8f2;fill-opacity:1;fill-rule:nonzero;stroke:none"
             d="m 0,0 c -0.74,6.907 6.167,12.457 13.444,14.431 7.278,1.973 14.432,0.247 15.295,-6.66 l 3.576,-30.96 c 0.864,-7.278 -6.167,-12.705 -13.444,-14.678 -6.784,-1.851 -14.308,-0.37 -15.171,6.29 z m -18.626,-37.621 c 2.591,-21.092 22.202,-26.766 40.704,-21.832 19.365,5.181 35.524,20.475 33.057,41.567 l -3.7,31.576 C 48.844,34.783 29.109,40.333 10.607,35.399 -7.895,30.466 -24.67,15.171 -22.203,-6.044 Z" /></g><g
           transform="translate(2925.2354,587.3138)"
           id="g136"><path
             id="path138"
             style="fill:#dee8f2;fill-opacity:1;fill-rule:nonzero;stroke:none"
             d="m 0,0 -2.467,21.338 -70.677,-18.995 2.467,-21.339 23.929,6.414 8.881,-70.923 22.695,6.044 -8.881,70.923 z" /></g><g
           transform="translate(2954.9619,562.3978)"
           id="g140"><path
             id="path142"
             style="fill:#dee8f2;fill-opacity:1;fill-rule:nonzero;stroke:none"
             d="m 0,0 2.59,28.492 1.603,0.494 9.128,-25.409 z m 10.237,57.479 -20.475,-5.427 -19.736,-100.527 24.053,6.414 3.207,19.982 23.683,6.414 8.016,-16.898 24.053,6.414 z" /></g><g
           transform="translate(2367.7148,1054.1752)"
           id="g144"><path
             id="path146"
             style="fill:#ffffff;fill-opacity:1;fill-rule:nonzero;stroke:none"
             d="M 0,0 C -0.124,-0.247 -0.37,-0.494 -0.493,-0.74 L 11.595,2.467 C 13.938,3.083 16.281,3.7 18.502,4.44 10.484,-5.427 1.604,-14.555 -8.141,-22.819 c -1.357,-1.11 -2.59,-2.22 -3.947,-3.33 -21.585,-17.268 -46.994,-30.343 -75.487,-37.744 l -55.012,-14.308 c -3.577,-0.863 -7.031,-1.727 -10.608,-2.467 -4.441,-0.986 -9.004,-1.727 -13.568,-2.343 -0.124,0 -0.247,0 -0.37,-0.124 -100.033,-13.321 -196.365,49.832 -222.391,149.741 -1.111,4.071 -1.974,8.141 -2.714,12.211 -0.246,1.111 -0.493,2.098 -0.616,3.331 -0.248,1.727 -0.618,3.33 -0.864,4.934 -3.331,21.462 -3.084,42.924 0.37,63.522 12.581,76.598 68.95,142.218 148.754,163.063 l 55.012,14.308 c 34.907,9.128 70.061,8.511 102.623,-0.123 8.758,-2.344 17.516,-5.304 25.903,-8.758 11.841,-4.934 23.066,-10.854 33.673,-17.885 0.74,-0.493 1.481,-0.987 2.221,-1.48 -4.194,0 -8.265,-0.124 -12.581,-0.37 -2.714,-0.124 -5.305,-0.493 -8.142,-0.74 h 0.617 c 0.247,0 0.494,0 0.741,-0.123 0.37,-0.247 0.74,-0.494 1.109,-0.741 38.484,-27.135 68.087,-67.963 80.915,-117.794 0.123,-0.37 0.123,-0.617 0.246,-0.987 0.37,-1.727 0.864,-3.453 1.235,-5.181 0.37,-2.096 0.863,-4.07 1.356,-6.29 1.48,-7.154 2.467,-14.185 3.084,-21.339 C 48.228,93.125 32.316,41.691 1.356,1.48 0.986,0.987 0.74,0.617 0.247,0.247 0.246,0.37 0,0.124 0,0" /></g><g
           transform="translate(2355.0098,1027.9027)"
           id="g148"><path
             id="path150"
             style="fill:#dbe7f6;fill-opacity:1;fill-rule:nonzero;stroke:none"
             d="m 0,0 c -21.585,-17.269 -46.994,-30.343 -75.487,-37.744 l -55.012,-14.308 c -3.577,-0.863 -7.03,-1.727 -10.607,-2.467 -4.442,-0.986 -9.005,-1.727 -13.569,-2.343 -0.123,0 -0.247,0 -0.37,-0.123 -100.033,-13.322 -196.365,49.831 -222.392,149.74 -1.11,4.071 -1.973,8.141 -2.713,12.212 -0.246,1.11 -0.371,2.22 -0.617,3.33 -0.123,0.987 -0.247,1.727 -0.493,2.714 -3.454,22.325 -3.207,44.528 0.37,65.866 0.123,-11.471 1.234,-23.065 3.578,-34.907 0,0 10.483,-55.382 50.694,-101.76 36.14,-41.937 104.103,-70.553 183.661,-70.923 25.162,-0.123 50.078,3.577 74.131,10.608 C -45.884,-13.568 -22.941,-6.784 0,0" /></g><g
           transform="translate(2035.542,1178.2743)"
           id="g152"><path
             id="path154"
             style="fill:#2b3947;fill-opacity:1;fill-rule:nonzero;stroke:none"
             d="M 0,0 C 21.098,5.489 42.747,-7.538 48.356,-29.097 53.965,-50.655 41.409,-72.582 20.312,-78.07 -0.784,-83.56 -22.434,-70.533 -28.043,-48.974 -33.652,-27.416 -21.097,-5.489 0,0" /></g><g
           transform="translate(2070.083,1106.9667)"
           id="g156"><path
             id="path158"
             style="fill:#191e24;fill-opacity:1;fill-rule:nonzero;stroke:none"
             d="m 0,0 c -0.494,-0.37 -0.987,-0.74 -1.48,-0.986 -18.008,-12.335 -42.801,-7.278 -55.382,10.977 -12.581,18.255 -8.265,43.294 9.621,55.629 2.344,1.604 4.81,2.96 7.4,3.947 C -56.615,56.862 -60.316,32.934 -47.981,14.925 -37.004,-0.986 -16.898,-6.907 0,0" /></g><g
           id="g160"><g
             id="g162" /><g
             id="g174"><g
               style="opacity:0.630005"
               id="g172"
               clip-path="url(#clipPath166)"><g
                 id="g170"
                 transform="translate(2435.8008,1204.6561)"><path
                   id="path168"
                   style="fill:#dfeaf2;fill-opacity:1;fill-rule:nonzero;stroke:none"
                   d="m 0,0 c 4.317,-52.421 -13.814,-103.363 -47.857,-143.697 -0.371,-0.493 -0.741,-0.864 -1.111,-1.234 -0.123,-0.123 -0.246,-0.369 -0.37,-0.493 -0.246,-0.37 -0.493,-0.617 -0.74,-0.863 l -0.123,-0.124 c -2.344,-0.616 -4.564,-1.357 -6.907,-1.973 l -12.088,-3.207 c 0.123,0.247 0.37,0.493 0.493,0.74 0.123,0.123 0.246,0.37 0.37,0.493 0.37,0.494 0.616,0.864 1.109,1.234 30.96,40.087 46.871,91.522 42.062,144.684 -0.617,7.03 -1.728,14.308 -3.084,21.338 -0.37,2.097 -0.74,4.071 -1.357,6.291 -0.37,1.727 -0.74,3.454 -1.234,5.181 -0.123,0.37 -0.123,0.616 -0.246,0.986 -12.828,49.708 -42.431,90.536 -80.915,117.795 -0.37,0.247 -0.74,0.494 -1.109,0.74 -0.247,0 -0.494,0 -0.741,0.124 h -0.617 c 2.591,0.369 5.428,0.616 8.142,0.739 4.193,0.371 8.386,0.494 12.581,0.371 h 0.616 c 0.247,0 0.617,0 0.74,-0.124 0.493,-0.247 0.74,-0.493 1.111,-0.74 41.074,-26.149 72.403,-66.113 85.354,-114.958 0.124,-0.369 0.124,-0.616 0.247,-0.987 0.493,-1.726 0.863,-3.453 1.234,-5.18 0.37,-2.097 0.863,-4.07 1.356,-6.167 C -1.479,14.062 -0.493,7.031 0,0" /></g></g></g></g><g
           transform="translate(2414.0928,1201.326)"
           id="g176"><path
             id="path178"
             style="fill:#dee8f2;fill-opacity:1;fill-rule:nonzero;stroke:none"
             d="m 0,0 c 4.811,-53.039 -11.472,-104.597 -43.048,-144.807 -0.37,-0.494 -0.74,-0.864 -1.109,-1.234 -0.124,-0.123 -0.247,-0.37 -0.37,-0.493 -0.124,-0.247 -0.37,-0.493 -0.494,-0.74 l -23.805,-6.044 -26.274,-6.784 -8.756,-2.22 -15.172,-3.948 c -3.701,-0.863 -7.401,-1.726 -11.225,-2.466 -26.272,-4.811 -52.545,-2.961 -76.474,4.687 -43.294,17.022 -78.694,55.629 -91.769,106.447 -0.739,3.083 -1.48,6.167 -2.097,9.25 -11.1,57.356 9.374,113.848 49.708,148.138 15.912,11.841 34.413,20.846 54.889,26.026 l 55.999,14.432 22.448,5.797 7.648,1.973 c 1.726,0.37 3.33,0.864 5.057,1.234 4.811,1.11 9.497,1.973 14.432,2.59 h 0.616 c 0.247,0 0.493,0 0.74,-0.123 0.37,-0.247 0.741,-0.494 1.111,-0.74 38.976,-27.013 68.826,-67.84 81.654,-117.548 0.123,-0.37 0.246,-0.617 0.246,-0.987 0.37,-1.727 0.863,-3.454 1.233,-5.181 0.371,-2.096 0.865,-4.07 1.358,-6.29 C -1.728,14.062 -0.617,7.031 0,0" /></g><g
           transform="translate(2376.3486,1216.621)"
           id="g180"><path
             id="path182"
             style="fill:#c8d3e0;fill-opacity:1;fill-rule:nonzero;stroke:none"
             d="M 0,0 C 2.96,0.863 5.921,1.85 9.005,2.837 8.018,6.414 7.154,9.868 6.168,13.444 c 2.96,0.864 5.92,1.85 9.004,2.837 -0.987,3.577 -1.974,7.155 -2.837,10.732 2.96,0.863 6.044,1.85 9.127,2.837 -0.986,3.453 -1.85,6.907 -2.837,10.483 -2.96,-0.863 -5.921,-1.85 -9.004,-2.836 0.863,-3.454 1.85,-7.031 2.837,-10.608 C 9.374,25.902 6.414,24.916 3.33,24.052 2.344,27.506 1.48,31.083 0.493,34.66 c -2.96,-0.864 -5.92,-1.85 -9.004,-2.837 0.987,-3.577 1.851,-7.031 2.837,-10.608 -2.96,-0.863 -5.921,-1.85 -9.127,-2.837 0.987,-3.577 1.974,-7.154 2.837,-10.731 -2.961,-0.863 -5.921,-1.85 -9.005,-2.836 0.988,-3.578 1.851,-7.031 2.837,-10.608 2.961,0.863 5.921,1.85 9.005,2.714 -0.987,3.576 -1.851,7.03 -2.837,10.607 3.083,0.987 6.044,1.85 9.127,2.837 C -1.973,7.154 -0.986,3.577 0,0 m -131.116,-28.986 c 0.987,-3.454 1.85,-7.031 2.837,-10.608 2.961,0.864 5.921,1.85 9.005,2.837 -0.988,3.577 -1.851,7.03 -2.837,10.608 2.96,0.863 5.92,1.85 9.127,2.837 -0.987,3.577 -1.974,7.154 -2.837,10.73 2.96,0.864 5.921,1.851 9.005,2.837 -0.988,3.578 -1.851,7.031 -2.838,10.608 -2.96,-0.863 -5.92,-1.85 -9.004,-2.714 0.987,-3.576 1.85,-7.03 2.837,-10.607 -3.083,-0.987 -6.044,-1.85 -9.127,-2.837 -0.988,3.454 -1.851,7.031 -2.837,10.608 -2.961,-0.864 -5.921,-1.851 -9.005,-2.837 0.987,-3.577 1.851,-7.031 2.837,-10.608 -2.96,-0.863 -5.92,-1.85 -9.127,-2.837 0.986,-3.577 1.974,-7.154 2.837,-10.731 -2.96,-0.863 -5.921,-1.85 -9.004,-2.837 0.986,-3.577 1.85,-7.03 2.837,-10.608 2.96,0.864 5.92,1.851 9.004,2.714 -0.988,3.577 -1.851,7.031 -2.837,10.608 2.96,0.863 6.044,1.85 9.127,2.837 m -29.48,-32.317 c -0.986,3.577 -1.849,7.031 -2.837,10.608 -3.083,-0.987 -6.043,-1.85 -9.127,-2.837 -0.987,3.7 -1.85,7.154 -2.836,10.731 -3.084,-0.987 -5.921,-1.85 -9.005,-2.837 -0.987,3.577 -1.85,7.031 -2.837,10.731 -3.083,-0.987 -6.043,-1.85 -9.004,-2.714 -1.974,7.155 -3.824,14.185 -5.674,21.216 78.694,24.423 157.389,48.721 235.959,73.02 1.974,-7.154 3.824,-14.184 5.798,-21.462 -3.084,-0.863 -5.921,-1.85 -9.005,-2.837 0.987,-3.577 1.851,-7.03 2.837,-10.731 -3.083,-0.986 -6.043,-1.85 -9.127,-2.836 0.986,-3.578 1.85,-7.031 2.837,-10.731 C 24.299,7.031 21.339,6.167 18.379,5.181 19.365,1.604 20.229,-1.85 21.216,-5.427 0,-11.964 -21.092,-18.502 -42.431,-25.163 c -0.987,3.578 -1.85,7.031 -2.837,10.731 -3.084,-0.986 -5.92,-1.85 -9.004,-2.837 -0.987,3.578 -1.85,7.031 -2.837,10.732 -3.083,-0.987 -6.043,-1.851 -9.127,-2.837 -1.974,7.154 -3.825,14.185 -5.674,21.215 -6.044,-1.85 -12.088,-3.7 -18.132,-5.674 1.974,-7.154 3.823,-14.308 5.797,-21.462 -3.083,-0.987 -5.921,-1.85 -9.004,-2.837 0.986,-3.576 1.85,-7.031 2.837,-10.731 -3.084,-0.987 -5.921,-1.85 -9.004,-2.837 0.986,-3.577 1.85,-7.03 2.837,-10.608 -21.709,-5.92 -42.924,-12.458 -64.017,-18.995" /></g><g
           transform="translate(2388.6836,1243.6337)"
           id="g184"><path
             id="path186"
             style="fill:#c8d3e0;fill-opacity:1;fill-rule:nonzero;stroke:none"
             d="M 0,0 C 2.96,0.863 6.044,1.85 9.127,2.837 8.141,6.291 7.277,9.744 6.29,13.321 3.33,12.458 0.369,11.471 -2.714,10.484 -1.851,7.03 -0.863,3.577 0,0" /></g><g
           transform="translate(2379.6787,1240.7963)"
           id="g188"><path
             id="path190"
             style="fill:#c8d3e0;fill-opacity:1;fill-rule:nonzero;stroke:none"
             d="M 0,0 C -0.986,3.454 -1.85,7.031 -2.837,10.608 -5.797,9.745 -8.757,8.758 -11.841,7.771 -10.854,4.194 -9.99,0.74 -9.004,-2.837 -6.043,-1.85 -3.083,-0.863 0,0" /></g><g
           transform="translate(2260.4043,1203.9164)"
           id="g192"><path
             id="path194"
             style="fill:#c8d3e0;fill-opacity:1;fill-rule:nonzero;stroke:none"
             d="M 0,0 C 2.96,0.863 5.921,1.85 9.004,2.837 8.018,6.414 7.154,9.868 6.167,13.444 3.207,12.581 0.247,11.594 -2.837,10.731 -1.851,7.031 -0.863,3.454 0,0" /></g><g
           transform="translate(2251.4004,1201.0795)"
           id="g196"><path
             id="path198"
             style="fill:#c8d3e0;fill-opacity:1;fill-rule:nonzero;stroke:none"
             d="M 0,0 C -0.987,3.454 -1.851,7.031 -2.837,10.607 -5.798,9.744 -8.758,8.757 -11.842,7.771 -10.854,4.194 -9.991,0.74 -9.005,-2.837 -6.044,-1.85 -2.961,-0.864 0,0" /></g><g
           transform="translate(2382.5166,1230.0653)"
           id="g200"><path
             id="path202"
             style="fill:#c8d3e0;fill-opacity:1;fill-rule:nonzero;stroke:none"
             d="M 0,0 C 2.96,0.864 5.92,1.85 9.004,2.837 8.017,6.414 7.03,9.991 6.167,13.568 3.083,12.582 0.123,11.595 -2.961,10.731 -1.851,7.154 -0.864,3.454 0,0" /></g><g
           transform="translate(2364.3848,1224.515)"
           id="g204"><path
             id="path206"
             style="fill:#c8d3e0;fill-opacity:1;fill-rule:nonzero;stroke:none"
             d="M 0,0 C 3.083,0.987 6.044,1.85 9.127,2.837 8.141,6.414 7.153,9.991 6.29,13.568 3.33,12.705 0.369,11.718 -2.837,10.731 -1.851,7.031 -0.863,3.577 0,0" /></g><g
           transform="translate(2260.5273,1203.9164)"
           id="g208"><path
             id="path210"
             style="fill:#c8d3e0;fill-opacity:1;fill-rule:nonzero;stroke:none"
             d="m 0,0 c -3.083,-0.987 -6.043,-1.85 -9.127,-2.837 0.986,-3.577 1.974,-7.154 2.837,-10.731 2.96,0.863 5.921,1.85 9.128,2.837 C 1.851,-7.154 0.864,-3.577 0,0 -0.123,0 0,0 0,0" /></g><g
           transform="translate(2242.3965,1198.2426)"
           id="g212"><path
             id="path214"
             style="fill:#c8d3e0;fill-opacity:1;fill-rule:nonzero;stroke:none"
             d="m 0,0 c -2.961,-0.864 -5.921,-1.85 -9.128,-2.837 0.987,-3.577 1.974,-7.154 2.837,-10.731 3.084,0.986 6.044,1.85 9.128,2.837 C 1.85,-7.154 0.863,-3.454 0,0" /></g><g
           transform="translate(2373.5117,1227.2284)"
           id="g216"><path
             id="path218"
             style="fill:#c8d3e0;fill-opacity:1;fill-rule:nonzero;stroke:none"
             d="m 0,0 c 0.987,-3.454 1.851,-7.031 2.837,-10.607 2.96,0.863 5.921,1.85 9.005,2.836 C 10.854,-4.194 9.991,-0.74 9.005,2.837 6.044,1.85 2.961,0.864 0,0" /></g><g
           transform="translate(2364.3848,1224.3915)"
           id="g220"><path
             id="path222"
             style="fill:#c8d3e0;fill-opacity:1;fill-rule:nonzero;stroke:none"
             d="m 0,0 c -2.961,-0.863 -5.921,-1.85 -9.005,-2.837 0.987,-3.577 1.851,-7.031 2.837,-10.607 2.961,0.863 5.921,1.85 9.005,2.713 C 1.85,-7.031 0.986,-3.454 0,0 0,0.124 0,0 0,0" /></g><g
           transform="translate(2245.2324,1187.6346)"
           id="g224"><path
             id="path226"
             style="fill:#c8d3e0;fill-opacity:1;fill-rule:nonzero;stroke:none"
             d="m 0,0 c 0.987,-3.454 1.851,-7.031 2.837,-10.607 2.961,0.863 5.921,1.85 9.005,2.836 C 10.854,-4.194 9.991,-0.74 9.005,2.837 6.045,1.727 2.961,0.863 0,0" /></g><g
           transform="translate(2236.1055,1184.6742)"
           id="g228"><path
             id="path230"
             style="fill:#c8d3e0;fill-opacity:1;fill-rule:nonzero;stroke:none"
             d="m 0,0 c -2.96,-0.863 -5.921,-1.85 -9.004,-2.837 0.986,-3.577 1.85,-7.03 2.837,-10.607 2.96,0.863 5.92,1.85 9.004,2.713 C 1.85,-7.03 0.986,-3.454 0,0" /></g><g
           transform="translate(2375.4473,1241.8378)"
           id="g232"><path
             id="path234"
             style="fill:#c8d3e0;fill-opacity:1;fill-rule:nonzero;stroke:none"
             d="m 0,0 c 3.63,0.595 7.145,-2.412 7.849,-6.714 0.705,-4.303 -1.667,-8.273 -5.298,-8.867 -3.63,-0.595 -7.144,2.412 -7.849,6.714 C -6.002,-4.564 -3.631,-0.594 0,0" /></g><g
           transform="translate(2247.1602,1202.1122)"
           id="g236"><path
             id="path238"
             style="fill:#c8d3e0;fill-opacity:1;fill-rule:nonzero;stroke:none"
             d="m 0,0 c 3.631,0.595 7.145,-2.412 7.849,-6.714 0.705,-4.303 -1.667,-8.273 -5.297,-8.867 -3.631,-0.595 -7.145,2.412 -7.85,6.714 C -6.002,-4.564 -3.631,-0.594 0,0" /></g><g
           transform="translate(2385.8467,1227.1053)"
           id="g240"><path
             id="path242"
             style="fill:#2b3947;fill-opacity:1;fill-rule:nonzero;stroke:none"
             d="M 0,0 C 3.083,0.863 6.044,1.85 9.127,2.837 8.141,6.414 7.277,9.868 6.29,13.444 c 2.96,0.864 6.044,1.85 9.128,2.837 -0.987,3.577 -1.974,7.155 -2.837,10.731 3.083,0.864 6.043,1.851 9.25,2.837 -0.863,3.454 -1.85,6.908 -2.837,10.484 -2.96,-0.863 -5.92,-1.85 -9.127,-2.836 0.863,-3.454 1.85,-7.031 2.837,-10.608 C 9.62,25.902 6.537,24.916 3.453,24.052 2.59,27.506 1.603,31.083 0.616,34.66 c -3.084,-0.864 -6.044,-1.85 -9.128,-2.837 0.988,-3.577 1.851,-7.031 2.838,-10.608 -2.961,-0.863 -6.044,-1.85 -9.251,-2.837 0.987,-3.577 1.85,-7.154 2.837,-10.731 -2.961,-0.863 -6.044,-1.85 -9.128,-2.836 0.987,-3.578 1.851,-7.031 2.837,-10.608 2.961,0.863 5.921,1.85 9.128,2.837 -0.987,3.577 -1.851,7.03 -2.837,10.731 3.083,0.863 6.167,1.85 9.251,2.836 C -1.851,7.154 -0.986,3.7 0,0 m -132.843,-28.986 c 0.864,-3.454 1.85,-7.031 2.837,-10.608 3.083,0.864 6.044,1.85 9.127,2.837 -0.986,3.577 -1.85,7.03 -2.837,10.608 2.96,0.863 6.044,1.85 9.251,2.837 -0.986,3.577 -1.849,7.154 -2.837,10.73 2.96,0.864 6.044,1.851 9.128,2.837 -0.987,3.578 -1.85,7.031 -2.838,10.608 -2.96,-0.863 -5.92,-1.85 -9.127,-2.837 0.987,-3.577 1.851,-7.03 2.837,-10.608 -3.084,-0.863 -6.167,-1.85 -9.251,-2.836 -0.863,3.453 -1.849,7.03 -2.837,10.607 -3.084,-0.863 -6.044,-1.85 -9.127,-2.836 0.987,-3.578 1.85,-7.031 2.837,-10.608 -2.961,-0.864 -6.044,-1.85 -9.251,-2.837 0.987,-3.577 1.85,-7.154 2.837,-10.731 -2.96,-0.864 -6.044,-1.85 -9.128,-2.837 0.988,-3.577 1.851,-7.031 2.837,-10.608 2.961,0.864 5.921,1.851 9.128,2.837 -0.987,3.577 -1.85,7.031 -2.837,10.608 3.083,0.987 6.167,1.85 9.251,2.837 m -29.973,-32.317 c -0.987,3.577 -1.85,7.031 -2.837,10.608 -3.083,-0.987 -6.044,-1.85 -9.251,-2.837 -0.987,3.7 -1.85,7.154 -2.837,10.731 -3.083,-0.987 -6.044,-1.85 -9.127,-2.837 -0.987,3.577 -1.851,7.031 -2.837,10.731 -3.084,-0.987 -6.168,-1.85 -9.128,-2.837 -1.974,7.154 -3.823,14.185 -5.674,21.216 79.805,24.299 159.486,48.721 239.043,73.02 1.851,-7.154 3.824,-14.308 5.674,-21.462 -3.083,-0.863 -6.043,-1.85 -9.127,-2.837 0.986,-3.577 1.851,-7.03 2.837,-10.731 -3.084,-0.987 -6.167,-1.85 -9.251,-2.837 0.987,-3.577 1.851,-7.031 2.837,-10.731 -3.083,-0.987 -6.044,-1.85 -9.127,-2.837 0.986,-3.577 1.85,-7.031 2.837,-10.608 -21.462,-6.537 -42.925,-13.074 -64.387,-19.735 -0.986,3.577 -1.85,7.031 -2.837,10.731 -3.083,-0.987 -6.044,-1.85 -9.127,-2.837 -0.987,3.577 -1.85,7.031 -2.837,10.731 -3.084,-0.986 -6.168,-1.85 -9.251,-2.837 -1.973,7.154 -3.824,14.185 -5.673,21.216 -6.168,-1.85 -12.211,-3.7 -18.379,-5.674 1.85,-7.154 3.824,-14.308 5.673,-21.462 -3.083,-0.987 -6.043,-1.851 -9.127,-2.837 0.987,-3.577 1.851,-7.031 2.837,-10.731 -3.084,-0.987 -6.044,-1.85 -9.127,-2.837 0.987,-3.577 1.85,-7.031 2.837,-10.608 -21.71,-5.797 -43.172,-12.335 -64.634,-18.872" /></g><g
           transform="translate(2398.4277,1254.2411)"
           id="g244"><path
             id="path246"
             style="fill:#ffffff;fill-opacity:1;fill-rule:nonzero;stroke:none"
             d="M 0,0 C 3.084,0.863 6.044,1.85 9.251,2.837 8.388,6.291 7.4,9.744 6.414,13.321 3.454,12.458 0.493,11.471 -2.714,10.484 -1.85,7.031 -0.863,3.454 0,0 0.123,0 0,0 0,0" /></g><g
           transform="translate(2389.2998,1251.2806)"
           id="g248"><path
             id="path250"
             style="fill:#ffffff;fill-opacity:1;fill-rule:nonzero;stroke:none"
             d="M 0,0 C -0.863,3.454 -1.85,7.031 -2.837,10.608 -5.92,9.745 -8.881,8.758 -11.964,7.771 -10.978,4.194 -10.114,0.74 -9.127,-2.837 -6.167,-1.85 -2.96,-0.863 0,0" /></g><g
           transform="translate(2392.1367,1240.5497)"
           id="g252"><path
             id="path254"
             style="fill:#2b3947;fill-opacity:1;fill-rule:nonzero;stroke:none"
             d="M 0,0 C -0.863,3.454 -1.85,7.031 -2.837,10.608 -5.92,9.745 -8.881,8.758 -11.964,7.771 -10.978,4.194 -10.114,0.74 -9.127,-2.837 -6.167,-1.85 -2.96,-0.863 0,0" /></g><g
           transform="translate(2268.5449,1214.4008)"
           id="g256"><path
             id="path258"
             style="fill:#ffffff;fill-opacity:1;fill-rule:nonzero;stroke:none"
             d="M 0,0 C 2.961,0.863 6.044,1.85 9.128,2.837 8.141,6.414 7.277,9.868 6.291,13.444 3.331,12.581 0.37,11.594 -2.837,10.607 -1.85,7.154 -0.863,3.577 0,0" /></g><g
           transform="translate(2259.2939,1211.5638)"
           id="g260"><path
             id="path262"
             style="fill:#ffffff;fill-opacity:1;fill-rule:nonzero;stroke:none"
             d="M 0,0 C -0.863,3.454 -1.85,7.031 -2.837,10.607 -5.92,9.744 -8.881,8.757 -11.964,7.771 -10.978,4.193 -10.114,0.74 -9.127,-2.837 -6.044,-1.851 -2.96,-0.864 0,0" /></g><g
           transform="translate(2262.0078,1200.9559)"
           id="g264"><path
             id="path266"
             style="fill:#2b3947;fill-opacity:1;fill-rule:nonzero;stroke:none"
             d="M 0,0 C -0.863,3.454 -1.851,7.031 -2.837,10.608 -5.921,9.744 -8.881,8.757 -11.965,7.771 -10.978,4.194 -10.114,0.74 -9.127,-2.837 -6.167,-1.85 -3.084,-0.863 0,0" /></g><g
           transform="translate(2392.1367,1240.6732)"
           id="g268"><path
             id="path270"
             style="fill:#ffffff;fill-opacity:1;fill-rule:nonzero;stroke:none"
             d="M 0,0 C 2.961,0.863 6.044,1.85 9.128,2.837 8.141,6.414 7.154,9.991 6.291,13.568 3.207,12.581 0.124,11.594 -2.96,10.731 -1.85,7.154 -0.863,3.454 0,0" /></g><g
           transform="translate(2373.7588,1234.9994)"
           id="g272"><path
             id="path274"
             style="fill:#ffffff;fill-opacity:1;fill-rule:nonzero;stroke:none"
             d="M 0,0 C 3.084,0.863 6.167,1.85 9.251,2.837 8.264,6.414 7.277,9.991 6.414,13.568 3.454,12.705 0.37,11.718 -2.837,10.731 -1.851,7.154 -0.863,3.577 0,0" /></g><g
           transform="translate(2268.5449,1214.4008)"
           id="g276"><path
             id="path278"
             style="fill:#ffffff;fill-opacity:1;fill-rule:nonzero;stroke:none"
             d="m 0,0 c -3.083,-0.864 -6.167,-1.85 -9.251,-2.837 0.987,-3.577 1.974,-7.154 2.838,-10.731 2.96,0.863 6.043,1.85 9.25,2.837 C 1.851,-7.031 0.987,-3.577 0,0" /></g><g
           transform="translate(2250.167,1208.85)"
           id="g280"><path
             id="path282"
             style="fill:#ffffff;fill-opacity:1;fill-rule:nonzero;stroke:none"
             d="m 0,0 c -2.961,-0.863 -6.044,-1.85 -9.251,-2.837 0.986,-3.577 1.85,-7.154 2.837,-10.731 3.083,0.863 6.167,1.85 9.251,2.837 C 1.85,-7.277 0.986,-3.577 0,0" /></g><g
           transform="translate(2383.0098,1237.8363)"
           id="g284"><path
             id="path286"
             style="fill:#ffffff;fill-opacity:1;fill-rule:nonzero;stroke:none"
             d="m 0,0 c 0.863,-3.454 1.851,-7.031 2.837,-10.608 3.084,0.864 6.044,1.85 9.128,2.837 C 10.978,-4.194 10.114,-0.74 9.127,2.837 6.167,1.85 3.084,0.863 0,0" /></g><g
           transform="translate(2373.8818,1234.9994)"
           id="g288"><path
             id="path290"
             style="fill:#ffffff;fill-opacity:1;fill-rule:nonzero;stroke:none"
             d="m 0,0 c -2.96,-0.864 -6.044,-1.85 -9.127,-2.837 0.986,-3.577 1.85,-7.031 2.837,-10.608 2.96,0.863 5.92,1.85 9.127,2.837 C 1.728,-7.031 0.863,-3.577 0,0 -0.123,0 0,0 0,0" /></g><g
           transform="translate(2253.0039,1198.119)"
           id="g292"><path
             id="path294"
             style="fill:#ffffff;fill-opacity:1;fill-rule:nonzero;stroke:none"
             d="m 0,0 c 0.863,-3.454 1.85,-7.031 2.837,-10.608 3.083,0.864 6.044,1.851 9.127,2.837 C 10.978,-4.194 10.114,-0.74 9.127,2.837 6.167,1.85 3.083,0.863 0,0" /></g><g
           transform="translate(2243.876,1195.2821)"
           id="g296"><path
             id="path298"
             style="fill:#ffffff;fill-opacity:1;fill-rule:nonzero;stroke:none"
             d="m 0,0 c -2.96,-0.863 -6.044,-1.85 -9.127,-2.837 0.986,-3.577 1.85,-7.031 2.837,-10.608 2.96,0.864 5.921,1.851 9.127,2.837 C 1.727,-7.154 0.863,-3.577 0,0 -0.123,0 0,0 0,0" /></g><g
           transform="translate(2311.8389,1105.8568)"
           id="g300"><path
             id="path302"
             style="fill:#c8d3e0;fill-opacity:1;fill-rule:nonzero;stroke:none"
             d="m 0,0 c -8.387,0.124 -17.145,2.097 -26.025,7.031 -1.974,1.11 -2.714,3.577 -1.604,5.674 1.109,1.973 3.576,2.713 5.674,1.603 29.726,-16.652 61.426,7.648 61.673,7.894 1.849,1.357 4.44,1.11 5.797,-0.74 1.356,-1.85 1.11,-4.441 -0.741,-5.797 C 43.665,14.678 24.176,-0.37 0,0" /></g><g
           transform="translate(2277.9189,1105.6102)"
           id="g304"><path
             id="path306"
             style="fill:#c8d3e0;fill-opacity:1;fill-rule:nonzero;stroke:none"
             d="m 0,0 c -1.356,0 -2.59,0.617 -3.33,1.85 -3.453,5.181 -4.07,11.471 -1.48,16.651 3.701,7.278 12.705,10.608 20.969,7.771 2.097,-0.74 3.33,-3.083 2.59,-5.18 -0.74,-2.097 -3.084,-3.33 -5.181,-2.591 C 9.252,19.982 4.317,18.378 2.591,14.801 1.357,12.458 1.728,9.127 3.578,6.537 4.812,4.687 4.318,2.097 2.468,0.863 1.728,0.247 0.864,0 0,0" /></g><g
           transform="translate(2294.2012,1123.7421)"
           id="g308"><path
             id="path310"
             style="fill:none;stroke:#2b3947;stroke-width:8.25199986;stroke-linecap:round;stroke-linejoin:miter;stroke-miterlimit:10;stroke-dasharray:none;stroke-opacity:1"
             d="M 0,0 C 32.563,-18.255 66.236,8.141 66.236,8.141" /></g><g
           transform="translate(2284.457,1117.0814)"
           id="g312"><path
             id="path314"
             style="fill:none;stroke:#2b3947;stroke-width:8.25199986;stroke-linecap:round;stroke-linejoin:miter;stroke-miterlimit:10;stroke-dasharray:none;stroke-opacity:1"
             d="m 0,0 c -2.591,3.824 -3.084,8.634 -1.233,12.458 2.589,5.18 9.497,7.894 16.034,5.673" /></g></g></g></g></svg>